<svg width="305" height="46" viewBox="0 0 305 46" fill="none" xmlns="http://www.w3.org/2000/svg">
<path d="M104.729 12.2034C95.0977 12.2034 88.0992 19.5871 88.0992 28.6026V28.6937C88.0992 37.7093 95.0102 45.0018 104.641 45.0018C114.273 45.0018 121.271 37.6181 121.271 28.6026V28.5114C121.271 19.4959 114.36 12.2034 104.729 12.2034ZM114.092 28.692C114.092 34.1274 110.259 38.5672 104.729 38.5672C99.1991 38.5672 95.2762 34.038 95.2762 28.6008V28.5096C95.2762 23.0742 99.1098 18.6344 104.64 18.6344C110.17 18.6344 114.092 23.1636 114.092 28.6008V28.692Z" fill="white"/>
<path d="M21.8848 38.4975H7.5289C7.21906 38.4975 6.96874 38.2419 6.96874 37.9256V15.7799C6.96874 13.7834 5.4318 12.2034 3.48525 12.2034C1.53869 12.2034 0 13.7834 0 15.7799V41.4235C0 43.4217 1.53869 45 3.48525 45H21.8848C23.6493 45 25.0532 43.5594 25.0532 41.7488C25.0532 39.9381 23.651 38.4975 21.8848 38.4975Z" fill="white"/>
<path d="M78.8706 32.1487C78.7848 32.0433 78.8338 31.886 78.9616 31.8449C83.07 30.5383 86.0494 26.7401 86.0494 22.2681C86.0476 16.7183 81.4596 12.2034 75.8212 12.2034H62.4351C60.7476 12.2034 59.2947 13.526 59.2142 15.2455C59.1302 17.0811 60.5638 18.5968 62.3458 18.5968H75.8212C78.0093 18.5968 79.7896 20.243 79.7896 22.2663C79.7896 24.2896 78.0093 25.9358 75.8212 25.9358H62.5821C60.7196 25.9358 59.2107 27.4748 59.2107 29.3747V41.3234C59.2107 43.2716 60.6986 44.9321 62.6067 44.9946C64.6285 45.0626 66.2477 43.4539 66.2477 41.4092V33.273C66.2477 32.9584 66.498 32.7028 66.8079 32.7028H70.3806C70.5522 32.7028 70.7132 32.7833 70.82 32.9209L78.7235 43.1358C79.5462 44.2082 80.5966 45 82.1965 45C83.8875 45 85.533 43.6952 85.533 41.6916C85.533 40.5727 85.0761 39.8273 84.3899 38.9426L78.8723 32.1487H78.8706Z" fill="white"/>
<path d="M29.2824 21.9321C29.6517 21.9321 29.9931 21.6533 30.3887 21.151C30.4237 21.1027 30.4622 21.0563 30.499 21.008C30.5427 20.949 30.9016 20.5022 31.0381 20.3467C33.2438 17.8301 36.4489 16.2447 40.0164 16.2447C43.2986 16.2447 46.2692 17.5905 48.4416 19.764C48.4661 19.789 48.5904 19.9106 48.6307 19.9463C49.4044 20.6631 50.4302 21.101 51.5557 21.101C53.9627 21.101 55.9127 19.108 55.9127 16.6522C55.9127 14.5878 54.5333 12.8576 52.6673 12.3553L52.6568 12.3517C52.515 12.3142 52.3715 12.2838 52.2262 12.2606C52.1789 12.2534 52.1317 12.2445 52.0844 12.2391C52.0266 12.232 51.9671 12.2266 51.9093 12.2213C51.8061 12.2123 51.7028 12.207 51.5978 12.2052C51.5838 12.2052 51.5697 12.2034 51.5557 12.2034C51.5522 12.2034 51.5505 12.2034 51.547 12.2034C51.5417 12.2034 51.5382 12.2034 51.533 12.2034H31.614C29.741 12.2034 28.2216 13.7548 28.2216 15.6673V20.8489C28.2216 21.4477 28.696 21.9321 29.2824 21.9321Z" fill="white"/>
<path d="M51.5557 36.1024C50.4284 36.1024 49.4026 36.5403 48.6307 37.2571C48.5921 37.2928 48.4661 37.4144 48.4416 37.4394C46.2692 39.6128 43.2986 40.9587 40.0164 40.9587C36.4489 40.9587 33.2438 39.3733 31.0381 36.8567C30.9016 36.7012 30.5427 36.2544 30.499 36.1954C30.4622 36.1471 30.4254 36.1006 30.3887 36.0524C29.9931 35.5501 29.6517 35.2695 29.2824 35.2713C28.696 35.2713 28.2216 35.7557 28.2216 36.3545V41.5361C28.2216 43.4486 29.741 45 31.614 45H51.533C51.533 45 51.5417 45 51.547 45C51.5505 45 51.5522 45 51.5557 45C51.5697 45 51.5838 44.9982 51.5978 44.9982C51.7028 44.9982 51.8061 44.9911 51.9093 44.9821C51.9689 44.9768 52.0266 44.9714 52.0844 44.9643C52.1317 44.9589 52.1789 44.95 52.2262 44.9428C52.3732 44.9196 52.5168 44.8892 52.6568 44.8517L52.6673 44.8481C54.5333 44.3458 55.9127 42.6139 55.9127 40.5512C55.9127 38.0936 53.9609 36.1024 51.5557 36.1024Z" fill="white"/>
<path d="M44.8776 28.6133C44.8776 28.6133 44.8776 28.6062 44.8776 28.6026C44.8776 28.599 44.8776 28.5954 44.8776 28.5919C44.8776 28.4918 44.8741 28.3917 44.8688 28.2934C44.8688 28.2862 44.8688 28.2791 44.8688 28.2719C44.8636 28.1754 44.8548 28.0807 44.8426 27.9877C44.5485 25.5265 42.4916 23.6122 40.0024 23.6122C38.8874 23.6122 37.8598 23.9965 37.0371 24.64C36.9758 24.6882 36.855 24.7901 36.701 24.9224C36.6012 25.0082 36.1093 25.455 35.9728 25.5712C34.5111 26.8295 32.6241 27.5874 30.562 27.5874C28.7432 27.5874 27.061 26.9957 25.6851 25.9948C25.5556 25.9001 24.9341 25.4157 24.7906 25.3263C24.2164 24.9724 23.5565 24.7812 22.8685 24.7812C21.8708 24.7812 20.9342 25.178 20.2305 25.8965C19.6599 26.4792 19.301 27.2209 19.1837 28.0217C19.1557 28.2094 19.1365 28.3988 19.1365 28.5919C19.1365 28.5954 19.1365 28.599 19.1365 28.6026C19.1365 28.6062 19.1365 28.6097 19.1365 28.6133C19.1365 28.8028 19.154 28.9887 19.182 29.1728C19.2975 29.9771 19.6564 30.7224 20.2305 31.3087C20.936 32.029 21.8725 32.424 22.8685 32.424C23.5565 32.424 24.2164 32.2345 24.7906 31.8789C24.9341 31.7913 25.5556 31.3051 25.6851 31.2104C27.061 30.2077 28.7432 29.6178 30.562 29.6178C32.6241 29.6178 34.5111 30.3775 35.9728 31.634C36.1093 31.7502 36.6012 32.197 36.701 32.2828C36.8533 32.4133 36.9758 32.5169 37.0371 32.5652C37.8598 33.2105 38.8874 33.593 40.0024 33.593C42.5844 33.593 44.7043 31.5321 44.8688 28.9368C44.8688 28.9297 44.8688 28.9225 44.8688 28.9136C44.8741 28.8135 44.8793 28.7134 44.8793 28.6115L44.8776 28.6133Z" fill="white"/>
<path d="M144.447 45C158.099 45 168.021 34.8688 168.021 22.5V22.3757C168.021 10.0069 158.225 0 144.574 0C130.923 0 121 10.1312 121 22.5V22.6243C121 34.9931 130.796 45 144.447 45ZM144.574 36.174C136.737 36.174 131.175 29.9586 131.175 22.5V22.3757C131.175 14.9171 136.611 8.82596 144.447 8.82596C152.284 8.82596 157.846 15.0414 157.846 22.5V22.6243C157.846 30.0829 152.411 36.174 144.574 36.174Z" fill="white"/>
<path d="M192.083 44.8757C201.627 44.8757 208.326 40.0276 208.326 31.3881V31.2638C208.326 23.6809 203.27 20.511 194.295 18.2113C186.648 16.2845 184.752 15.3522 184.752 12.4931V12.3688C184.752 10.2555 186.711 8.57735 190.44 8.57735C194.169 8.57735 198.024 10.1934 201.943 12.866L206.999 5.65607C202.512 2.11326 197.013 0.124307 190.567 0.124307C181.529 0.124307 175.082 5.3453 175.082 13.2389V13.3633C175.082 22.0028 180.834 24.4268 189.745 26.6644C197.14 28.529 198.656 29.7721 198.656 32.1961V32.3204C198.656 34.8688 196.255 36.4226 192.273 36.4226C187.217 36.4226 183.046 34.3715 179.064 31.1395L173.313 37.9144C178.622 42.576 185.384 44.8757 192.083 44.8757Z" fill="white"/>
<path d="M216.773 44.2541H226.506V31.2017H233.9C243.823 31.2017 251.786 25.9807 251.786 15.9116V15.7873C251.786 6.89917 245.403 0.745853 234.848 0.745853H216.773V44.2541ZM226.506 22.6865V9.38536H234.026C238.893 9.38536 241.927 11.6851 241.927 15.9738V16.0981C241.927 19.8273 239.083 22.6865 234.216 22.6865H226.506Z" fill="white"/>
<path d="M280.477 45C294.128 45 304.051 34.8688 304.051 22.5V22.3757C304.051 10.0069 294.255 0 280.603 0C266.952 0 257.03 10.1312 257.03 22.5V22.6243C257.03 34.9931 266.826 45 280.477 45ZM280.603 36.174C272.767 36.174 267.205 29.9586 267.205 22.5V22.3757C267.205 14.9171 272.64 8.82596 280.477 8.82596C288.314 8.82596 293.876 15.0414 293.876 22.5V22.6243C293.876 30.0829 288.44 36.174 280.603 36.174Z" fill="white"/>
</svg>
